<svg xmlns="http://www.w3.org/2000/svg" version="1.1" xmlns:xlink="http://www.w3.org/1999/xlink" xmlns:svgjs="http://svgjs.dev/svgjs" width="1000" height="1000" viewBox="0 0 1000 1000"><rect width="1000" height="1000" fill="#ffffff"></rect><g transform="matrix(0.7,0,0,0.7,150.60187040133786,141.6387755319151)"><svg viewBox="0 0 138 141" data-background-color="#444444" preserveAspectRatio="xMidYMid meet" height="1021" width="1000" xmlns="http://www.w3.org/2000/svg" xmlns:xlink="http://www.w3.org/1999/xlink"><g id="tight-bounds" transform="matrix(1,0,0,1,-0.11865445054945667,0.19949999999997203)"><svg viewBox="0 0 138.23730890109894 140.60052000000002" height="140.60052000000002" width="138.23730890109894"><g><svg viewBox="0 0 138.23730890109894 140.60052000000002" height="140.60052000000002" width="138.23730890109894"><g><svg viewBox="0 0 138.23730890109894 140.60052000000002" height="140.60052000000002" width="138.23730890109894"><g><path d="M0 140.601v-140.601h138.237v140.601z" fill="#000000" stroke="transparent" stroke-width="0" rx="0%" data-fill-palette-color="tertiary"></path><path d="M3.283 137.317v-134.034h131.671v134.034z" fill="#ffffff" stroke="transparent" stroke-width="0" rx="0%" data-fill-palette-color="quaternary"></path><path d="M9.85 130.751v-120.901h118.537v120.901z" fill="#000000" stroke="transparent" stroke-width="0" data-fill-palette-color="tertiary"></path></g><g transform="matrix(1,0,0,1,19.69974,19.69974)" id="textblocktransform"><svg viewBox="0 0 98.83782890109894 101.20104000000002" height="101.20104000000002" width="98.83782890109894" id="textblock"><g><svg viewBox="0 0 98.83782890109894 101.20104000000002" height="101.20104000000002" width="98.83782890109894"><g transform="matrix(1,0,0,1,0,0)"><svg width="98.83782890109894" viewBox="1.7000000476837158 -35.900001525878906 35.54999923706055 36.400001525878906" height="101.20104000000002" data-palette-color="#444444"><path d="M21.7 0.5L21.7 0.5Q17.35 0.5 13.7-0.28 10.05-1.05 7.35-3.05 4.65-5.05 3.18-8.6 1.7-12.15 1.7-17.7L1.7-17.7Q1.7-23.2 3.25-26.75 4.8-30.3 7.48-32.3 10.15-34.3 13.55-35.1 16.95-35.9 20.65-35.9L20.65-35.9Q23.1-35.9 25.15-35.65 27.2-35.4 28.85-35L28.85-35 35.65-31.05 32.15-22.25 21.1-25.6Q18.95-25.6 17.15-24.93 15.35-24.25 14.28-22.53 13.2-20.8 13.2-17.65L13.2-17.65Q13.2-12.85 15.28-10.93 17.35-9 21.15-9L21.15-9Q22.6-9 23.55-9.18 24.5-9.35 25.15-9.6L25.15-9.6 25.15-12.35 20.8-12.35 20.8-20.25 36.7-20.25 37.25-17.25 36.15-12.1 36.15-1.6Q35.6-1.4 33.68-0.9 31.75-0.4 28.7 0.05 25.65 0.5 21.7 0.5Z" opacity="1" transform="matrix(1,0,0,1,0,0)" fill="#ffffff" class="wordmark-text-0" data-fill-palette-color="quaternary" id="text-0"></path></svg></g></svg></g></svg></g></svg></g><g></g></svg></g><defs></defs></svg><rect width="138.23730890109894" height="140.60052000000002" fill="none" stroke="none" visibility="hidden"></rect></g></svg></g></svg>